<svg xmlns="http://www.w3.org/2000/svg" xmlns:xlink="http://www.w3.org/1999/xlink">
  <defs>
    <symbol fill="none" id="location" stroke="currentColor" stroke-linecap="round" stroke-linejoin="round" stroke-width="1.5" viewBox="0 0 24 24">
      <path d="M12.56 20.82a.96.96 0 0 1-1.12 0C6.611 17.378 1.486 10.298 6.667 5.182A7.6 7.6 0 0 1 12 3c2 0 3.919.785 5.333 2.181 5.181 5.116.056 12.196-4.773 15.64"></path>
      <path d="M12 12a2 2 0 1 0 0-4 2 2 0 0 0 0 4"></path>
    </symbol>
    <symbol fill="none" id="location-plus" stroke="currentColor" stroke-linecap="round" stroke-linejoin="round" stroke-width="1.5" viewBox="0 0 24 24">
      <path d="M12.56 20.82a.96.96 0 0 1-1.12 0C6.611 17.378 1.486 10.298 6.667 5.182A7.6 7.6 0 0 1 12 3c2 0 3.919.785 5.333 2.181 5.181 5.116.056 12.196-4.773 15.64M9.5 10h5M12 7.5v5"></path>
    </symbol>
    <symbol fill="none" id="edit" stroke="currentColor" stroke-linecap="round" stroke-linejoin="round" stroke-width="1.5" viewBox="0 0 24 24">
      <path d="M9.533 11.15A1.82 1.82 0 0 0 9 12.438V15h2.578c.483 0 .947-.192 1.289-.534l7.6-7.604a1.82 1.82 0 0 0 0-2.577l-.751-.751a1.82 1.82 0 0 0-2.578 0z"></path>
      <path d="M21 12c0 4.243 0 6.364-1.318 7.682S16.242 21 12 21s-6.364 0-7.682-1.318S3 16.242 3 12s0-6.364 1.318-7.682S7.758 3 12 3"></path>
    </symbol>
    <symbol fill="none" id="trash" stroke="currentColor" stroke-linecap="round" stroke-linejoin="round" stroke-width="1.5" viewBox="0 0 24 24">
      <path d="m18 9-.84 8.398c-.127 1.273-.19 1.909-.48 2.39a2.5 2.5 0 0 1-1.075.973C15.098 21 14.46 21 13.18 21h-2.36c-1.279 0-1.918 0-2.425-.24a2.5 2.5 0 0 1-1.076-.973c-.288-.48-.352-1.116-.48-2.389L6 9m7.5 6.5v-5m-3 5v-5m-6-4h4.615m0 0 .386-2.672c.112-.486.516-.828.98-.828h3.038c.464 0 .867.342.98.828l.386 2.672m-5.77 0h5.77m0 0H19.5"></path>
    </symbol>
    <symbol fill="none" id="x" stroke="currentColor" stroke-linecap="round" stroke-linejoin="round" stroke-width="1.5" viewBox="0 0 24 24">
      <path d="M18 6 6 18M6 6l12 12"></path>
    </symbol>
  </defs>
</svg>
