<svg xmlns="http://www.w3.org/2000/svg" xmlns:xlink="http://www.w3.org/1999/xlink">
  <defs>
    <symbol fill="none" height="24" id="location" stroke="currentColor" stroke-linecap="round" stroke-linejoin="round" stroke-width="1.5" viewBox="0 0 24 24" width="24">
      <path d="M12.56 20.82a.96.96 0 0 1-1.12 0C6.611 17.378 1.486 10.298 6.667 5.182A7.6 7.6 0 0 1 12 3c2 0 3.919.785 5.333 2.181 5.181 5.116.056 12.196-4.773 15.64"></path>
      <path d="M12 12a2 2 0 1 0 0-4 2 2 0 0 0 0 4"></path>
    </symbol>
    <symbol fill="none" height="24" id="location-plus" stroke="currentColor" stroke-linecap="round" stroke-linejoin="round" stroke-width="1.5" viewBox="0 0 24 24" width="24">
      <path d="M12.56 20.82a.96.96 0 0 1-1.12 0C6.611 17.378 1.486 10.298 6.667 5.182A7.6 7.6 0 0 1 12 3c2 0 3.919.785 5.333 2.181 5.181 5.116.056 12.196-4.773 15.64M9.5 10h5M12 7.5v5"></path>
    </symbol>
  </defs>
</svg>
