<?xml version="1.0" encoding="UTF-8"?>
<!DOCTYPE xml>
<svg xmlns="http://www.w3.org/2000/svg" xmlns:xlink="http://www.w3.org/1999/xlink">
  <defs>
    <symbol viewBox="0 0 24 24" id="home" fill="none" stroke-width="1.5">
      <path d="M15 21v-8a1 1 0 0 0-1-1h-4a1 1 0 0 0-1 1v8" />
      <path
        d="M3 10a2 2 0 0 1 .709-1.528l7-5.999a2 2 0 0 1 2.582 0l7 5.999A2 2 0 0 1 21 10v9a2 2 0 0 1-2 2H5a2 2 0 0 1-2-2z" />
    </symbol>
    <symbol viewBox="0 0 24 24" id="close" fill="none" stroke-width="1.5">
      <path d="M18 6 6 18" />
      <path d="m6 6 12 12" />
    </symbol>
    <symbol viewBox="0 0 24 24" id="up" fill="none" stroke-width="1.5">
      <path d="m4.5 15.75 7.5-7.5 7.5 7.5" />
    </symbol>
    <symbol viewBox="0 0 24 24" id="down" fill="none" stroke-width="1.5">
      <path d="m19.5 8.25-7.5 7.5-7.5-7.5" />
    </symbol>
    <symbol viewBox="0 0 24 24" id="left" fill="none" stroke-width="1.5">
      <path d="M15.75 19.5 8.25 12l7.5-7.5" />
    </symbol>
    <symbol viewBox="0 0 24 24" id="right" fill="none" stroke-width="1.5">
      <path d="m8.25 4.5 7.5 7.5-7.5 7.5" />
    </symbol>
    <symbol viewBox="0 0 24 24" id="theme" fill="none" stroke-width="1.5">
      <path
        d="M12 22a1 1 0 0 1 0-20 10 9 0 0 1 10 9 5 5 0 0 1-5 5h-2.25a1.75 1.75 0 0 0-1.4 2.8l.3.4a1.75 1.75 0 0 1-1.4 2.8z" />
      <circle cx="13.5" cy="6.5" r=".5" fill="currentColor" />
      <circle cx="17.5" cy="10.5" r=".5" fill="currentColor" />
      <circle cx="6.5" cy="12.5" r=".5" fill="currentColor" />
      <circle cx="8.5" cy="7.5" r=".5" fill="currentColor" />
    </symbol>
    <symbol viewBox="0 0 24 24" id="light-mode" fill="none" stroke-width="1.5">
      <circle cx="12" cy="12" r="4" />
      <path d="M12 2v2" />
      <path d="M12 20v2" />
      <path d="m4.93 4.93 1.41 1.41" />
      <path d="m17.66 17.66 1.41 1.41" />
      <path d="M2 12h2" />
      <path d="M20 12h2" />
      <path d="m6.34 17.66-1.41 1.41" />
      <path d="m19.07 4.93-1.41 1.41" />
    </symbol>
    <symbol viewBox="0 0 24 24" id="dark-mode" fill="none" stroke-width="1.5">
      <path d="M12 3a6 6 0 0 0 9 9 9 9 0 1 1-9-9Z" />
    </symbol>
    <symbol viewBox="0 0 24 24" id="menu" fill="none" stroke-width="1.5">
      <path d="M3.75 6.75h16.5M3.75 12h16.5m-16.5 5.25h16.5" />
    </symbol>
    <symbol viewBox="0 0 24 24" id="bell" fill="none" stroke-width="1.5">
      <path
        d="M14.857 17.082a23.848 23.848 0 0 0 5.454-1.31A8.967 8.967 0 0 1 18 9.75V9A6 6 0 0 0 6 9v.75a8.967 8.967 0 0 1-2.312 6.022c1.733.64 3.56 1.085 5.455 1.31m5.714 0a24.255 24.255 0 0 1-5.714 0m5.714 0a3 3 0 1 1-5.714 0" />
    </symbol>
    <symbol viewBox="0 0 24 24" id="language" fill="none" stroke-width="1.5">
      <circle cx="12" cy="12" r="10" />
      <path d="M12 2a14.5 14.5 0 0 0 0 20 14.5 14.5 0 0 0 0-20" />
      <path d="M2 12h20" />
    </symbol>
    <symbol viewBox="0 0 24 24" id="trash" fill="none" stroke-width="1.5">
      <path d="M3 6h18" />
      <path d="M19 6v14c0 1-1 2-2 2H7c-1 0-2-1-2-2V6" />
      <path d="M8 6V4c0-1 1-2 2-2h4c1 0 2 1 2 2v2" />
      <line x1="10" x2="10" y1="11" y2="17" />
      <line x1="14" x2="14" y1="11" y2="17" />
    </symbol>
    <symbol viewBox="0 0 24 24" id="heart" fill="none" stroke-width="1.5">
      <path
        d="M21 8.25c0-2.485-2.099-4.5-4.688-4.5-1.935 0-3.597 1.126-4.312 2.733-.715-1.607-2.377-2.733-4.313-2.733C5.1 3.75 3 5.765 3 8.25c0 7.22 9 12 9 12s9-4.78 9-12Z" />
    </symbol>
    <symbol viewBox="0 0 24 24" id="ellipsis" fill="none" stroke-width="1.5">
      <path
        d="M6.75 12a.75.75 0 1 1-1.5 0 .75.75 0 0 1 1.5 0ZM12.75 12a.75.75 0 1 1-1.5 0 .75.75 0 0 1 1.5 0ZM18.75 12a.75.75 0 1 1-1.5 0 .75.75 0 0 1 1.5 0Z" />
    </symbol>
  </defs>
</svg>

