<svg width="300" height="300" viewBox="0 0 312 300" fill="none" xmlns="http://www.w3.org/2000/svg">
  <path d="M12 0h250c27.614 0 50 22.386 50 50v200c0 27.614-22.386 50-50 50H12z" fill="#000" />
  <path d="M6 0h250c27.614 0 50 22.386 50 50v200c0 27.614-22.386 50-50 50H6z" fill="#fff" />
  <path d="M0 0h250c27.614 0 50 22.386 50 50v200c0 27.614-22.386 50-50 50H0z" fill="#000" />
  <path stroke="#fff" d="M5.5 300V0m6 300V0m6 300V0" />
  <path
    d="M127.2 71.2v138.2q0 8.4 3 11.4t10.2 3v4.2q-3.2-.2-9.6-.4-6.2-.4-12.6-.4-6.8 0-13.8.4-7 .2-10.4.4v-4.2q8.2 0 11.6-3 3.6-3 3.6-11.4V95.2q0-9-3.2-13.2-3.2-4.4-12-4.4v-4.2q6.4.6 12.4.6 5.8 0 11-.6 5.4-.8 9.8-2.2m63.6 53.8v4a23.3 23.3 0 0 0-9.4 2.8q-4.4 2.2-8.6 6.6L144.6 168l2.8-5.6 37.2 51q3.4 4.6 6.4 7.2 3.2 2.6 7.6 3.2v4.2q-2.2-.2-7-.4-4.6-.4-9.2-.4-6.2 0-12.6.4-6.4.2-9.6.4v-4.2q4 0 5.6-2t-.6-4.8l-23-33.6q-3.8-5.4-7-7-3-1.6-8.8-1.8v-4q6.4-.8 10.4-2.6 4-2 7.6-5.8l14.8-15.4q6.4-6.6 6.4-10.4 0-4-4.2-5.6-4-1.8-10.6-1.8v-4q5.2.2 11.6.6 6.6.2 11 .2h6.6q3.2-.2 6-.4t4.8-.4m34.361 80.2q5.2 0 9 3.8t3.8 9-3.8 9-9 3.8-9-3.8-3.8-9 3.8-9 9-3.8"
    fill="#fff" />
</svg>
