<svg xmlns="http://www.w3.org/2000/svg" xmlns:xlink="http://www.w3.org/1999/xlink" width="500"
    zoomAndPan="magnify" viewBox="0 0 375 374.999991" height="500"
    preserveAspectRatio="xMidYMid meet" version="1.0">
    <defs>
        <g />
        <clipPath id="abfb15ab5f">
            <path d="M 37.5 37.5 L 337.5 37.5 L 337.5 337.5 L 37.5 337.5 Z M 37.5 37.5 "
                clip-rule="nonzero" />
        </clipPath>
        <clipPath id="56b5ffa82f">
            <path
                d="M 187.5 37.5 C 104.65625 37.5 37.5 104.65625 37.5 187.5 C 37.5 270.34375 104.65625 337.5 187.5 337.5 C 270.34375 337.5 337.5 270.34375 337.5 187.5 C 337.5 104.65625 270.34375 37.5 187.5 37.5 Z M 187.5 37.5 "
                clip-rule="nonzero" />
        </clipPath>
    </defs>
    <g clip-path="url(#abfb15ab5f)">
        <g clip-path="url(#56b5ffa82f)">
            <path stroke-linecap="butt" transform="matrix(0.75, 0, 0, 0.75, 37.500002, 37.499998)"
                fill="none" stroke-linejoin="miter"
                d="M 200.00001 0.00000328333 C 89.54167 0.00000328333 -0.00000271667 89.541676 -0.00000271667 200.000016 C -0.00000271667 310.458357 89.54167 400.00003 200.00001 400.00003 C 310.458351 400.00003 400.000024 310.458357 400.000024 200.000016 C 400.000024 89.541676 310.458351 0.00000328333 200.00001 0.00000328333 Z M 200.00001 0.00000328333 "
                stroke="#000000" stroke-width="8" stroke-opacity="1" stroke-miterlimit="4" />
        </g>
    </g>
    <g fill="#000000" fill-opacity="1">
        <g transform="translate(81.240234, 217.124986)">
            <g>
                <path
                    d="M 7.3125 0 L 7.3125 -58.875 L 13.515625 -58.875 L 13.515625 -24.484375 L 14.546875 -24.484375 L 30.171875 -42.015625 L 36.671875 -42.015625 L 36.671875 -41.140625 L 20.03125 -22.28125 L 38.28125 -0.953125 L 38.28125 0 L 31.34375 0 L 14.546875 -19.421875 L 13.515625 -19.421875 L 13.515625 0 Z M 7.3125 0 " />
            </g>
        </g>
        <g transform="translate(120.316403, 217.124986)">
            <g>
                <path
                    d="M 10.4375 -50.125 C 9.113281 -50.125 8.039062 -50.535156 7.21875 -51.359375 C 6.394531 -52.179688 5.984375 -53.226562 5.984375 -54.5 C 5.984375 -55.769531 6.394531 -56.816406 7.21875 -57.640625 C 8.039062 -58.460938 9.113281 -58.875 10.4375 -58.875 C 11.757812 -58.875 12.832031 -58.460938 13.65625 -57.640625 C 14.476562 -56.816406 14.890625 -55.769531 14.890625 -54.5 C 14.890625 -53.226562 14.476562 -52.179688 13.65625 -51.359375 C 12.832031 -50.535156 11.757812 -50.125 10.4375 -50.125 Z M 7.3125 0 L 7.3125 -42.015625 L 13.515625 -42.015625 L 13.515625 0 Z M 7.3125 0 " />
            </g>
        </g>
        <g transform="translate(141.14941, 217.124986)">
            <g>
                <path
                    d="M 24.109375 0.796875 C 20.148438 0.796875 16.703125 -0.0390625 13.765625 -1.71875 C 10.835938 -3.394531 8.578125 -5.863281 6.984375 -9.125 C 5.398438 -12.382812 4.609375 -16.335938 4.609375 -20.984375 C 4.609375 -25.628906 5.398438 -29.585938 6.984375 -32.859375 C 8.578125 -36.140625 10.835938 -38.617188 13.765625 -40.296875 C 16.703125 -41.972656 20.148438 -42.8125 24.109375 -42.8125 C 28.066406 -42.8125 31.507812 -41.972656 34.4375 -40.296875 C 37.375 -38.617188 39.632812 -36.140625 41.21875 -32.859375 C 42.8125 -29.585938 43.609375 -25.628906 43.609375 -20.984375 C 43.609375 -16.335938 42.8125 -12.382812 41.21875 -9.125 C 39.632812 -5.863281 37.375 -3.394531 34.4375 -1.71875 C 31.507812 -0.0390625 28.066406 0.796875 24.109375 0.796875 Z M 24.109375 -4.765625 C 28.296875 -4.765625 31.5 -6.082031 33.71875 -8.71875 C 35.945312 -11.363281 37.0625 -15.453125 37.0625 -20.984375 C 37.0625 -26.546875 35.945312 -30.644531 33.71875 -33.28125 C 31.5 -35.925781 28.296875 -37.25 24.109375 -37.25 C 19.921875 -37.25 16.707031 -35.921875 14.46875 -33.265625 C 12.238281 -30.609375 11.125 -26.515625 11.125 -20.984375 C 11.125 -15.453125 12.238281 -11.363281 14.46875 -8.71875 C 16.707031 -6.082031 19.921875 -4.765625 24.109375 -4.765625 Z M 24.109375 -4.765625 " />
            </g>
        </g>
        <g transform="translate(189.366203, 217.124986)">
            <g>
                <path
                    d="M 7.3125 0 L 7.3125 -58.875 L 13.515625 -58.875 L 13.515625 -24.484375 L 14.546875 -24.484375 L 30.171875 -42.015625 L 36.671875 -42.015625 L 36.671875 -41.140625 L 20.03125 -22.28125 L 38.28125 -0.953125 L 38.28125 0 L 31.34375 0 L 14.546875 -19.421875 L 13.515625 -19.421875 L 13.515625 0 Z M 7.3125 0 " />
            </g>
        </g>
        <g transform="translate(228.442372, 217.124986)">
            <g>
                <path
                    d="M 40.03125 -19.578125 L 11.15625 -19.578125 C 11.332031 -14.472656 12.554688 -10.726562 14.828125 -8.34375 C 17.109375 -5.957031 20.226562 -4.765625 24.1875 -4.765625 C 27.175781 -4.765625 29.582031 -5.296875 31.40625 -6.359375 C 33.238281 -7.421875 34.675781 -9.097656 35.71875 -11.390625 L 36.53125 -11.390625 L 40.5625 -8.984375 C 39.34375 -5.941406 37.394531 -3.550781 34.71875 -1.8125 C 32.039062 -0.0703125 28.53125 0.796875 24.1875 0.796875 C 20.125 0.796875 16.628906 0 13.703125 -1.59375 C 10.785156 -3.195312 8.539062 -5.625 6.96875 -8.875 C 5.394531 -12.125 4.609375 -16.160156 4.609375 -20.984375 C 4.609375 -25.753906 5.4375 -29.773438 7.09375 -33.046875 C 8.757812 -36.328125 11.035156 -38.773438 13.921875 -40.390625 C 16.804688 -42.003906 20.097656 -42.8125 23.796875 -42.8125 C 29.179688 -42.8125 33.382812 -41.289062 36.40625 -38.25 C 39.425781 -35.21875 40.953125 -30.71875 40.984375 -24.75 C 40.984375 -22.414062 40.929688 -20.84375 40.828125 -20.03125 Z M 34.84375 -24.75 C 34.75 -29.21875 33.757812 -32.46875 31.875 -34.5 C 30 -36.53125 27.304688 -37.546875 23.796875 -37.546875 C 20.117188 -37.546875 17.234375 -36.523438 15.140625 -34.484375 C 13.046875 -32.441406 11.769531 -29.195312 11.3125 -24.75 Z M 34.84375 -24.75 " />
            </g>
        </g>
        <g transform="translate(273.231432, 217.124986)">
            <g>
                <path
                    d="M 10.25 0.375 C 8.800781 0.375 7.65625 -0.03125 6.8125 -0.84375 C 5.976562 -1.65625 5.5625 -2.734375 5.5625 -4.078125 C 5.5625 -5.398438 5.976562 -6.484375 6.8125 -7.328125 C 7.65625 -8.179688 8.800781 -8.609375 10.25 -8.609375 C 11.71875 -8.609375 12.867188 -8.203125 13.703125 -7.390625 C 14.546875 -6.578125 14.96875 -5.5 14.96875 -4.15625 C 14.96875 -2.8125 14.539062 -1.71875 13.6875 -0.875 C 12.84375 -0.0390625 11.695312 0.375 10.25 0.375 Z M 10.25 0.375 " />
            </g>
        </g>
    </g>
</svg>